G04*
G04 #@! TF.GenerationSoftware,Altium Limited,Altium Designer,22.10.1 (41)*
G04*
G04 Layer_Color=8388736*
%FSLAX25Y25*%
%MOIN*%
G70*
G04*
G04 #@! TF.SameCoordinates,7AE85D4C-FD46-4DCC-B2CD-606CE683DADB*
G04*
G04*
G04 #@! TF.FilePolarity,Negative*
G04*
G01*
G75*
%ADD14O,0.09800X0.05918*%
%ADD15O,0.09800X0.06800*%
%ADD16R,0.09800X0.05524*%
%ADD17R,0.07800X0.10800*%
%ADD18O,0.07800X0.10800*%
%ADD19C,0.07800*%
%ADD20O,0.07300X0.09800*%
%ADD21O,0.06800X0.09300*%
%ADD22C,0.08300*%
%ADD23R,0.07800X0.07800*%
%ADD24R,0.10800X0.16800*%
%ADD25R,0.16800X0.10800*%
%ADD26R,0.09800X0.06800*%
%ADD27O,0.06800X0.09800*%
%ADD28R,0.06800X0.09800*%
%ADD29C,0.04737*%
D14*
X397000Y340000D02*
D03*
D15*
Y330000D02*
D03*
Y320000D02*
D03*
X427000Y350000D02*
D03*
Y340000D02*
D03*
Y330000D02*
D03*
Y320000D02*
D03*
X455000Y219500D02*
D03*
Y229500D02*
D03*
Y239500D02*
D03*
Y249500D02*
D03*
Y259500D02*
D03*
Y269500D02*
D03*
Y279500D02*
D03*
Y289500D02*
D03*
X425000Y219500D02*
D03*
Y229500D02*
D03*
Y239500D02*
D03*
Y249500D02*
D03*
Y259500D02*
D03*
Y269500D02*
D03*
Y279500D02*
D03*
D16*
X397000Y350000D02*
D03*
D17*
X442000Y334500D02*
D03*
D18*
X452000D02*
D03*
D19*
X453500Y320000D02*
D03*
X443500D02*
D03*
X481000Y214000D02*
D03*
X516000D02*
D03*
X481000Y227000D02*
D03*
X516000D02*
D03*
X481000Y238000D02*
D03*
X516000D02*
D03*
X481000Y249000D02*
D03*
X516000D02*
D03*
X481000Y264500D02*
D03*
X516000D02*
D03*
X481000Y277500D02*
D03*
X516000D02*
D03*
X481000Y290500D02*
D03*
X516000D02*
D03*
X559500Y226500D02*
D03*
X569500Y286500D02*
D03*
X579500D02*
D03*
X569500Y226500D02*
D03*
X549500D02*
D03*
X579500D02*
D03*
X549500Y286500D02*
D03*
X539500D02*
D03*
X559500D02*
D03*
X474000Y351000D02*
D03*
X439000D02*
D03*
X366500Y251000D02*
D03*
X331500D02*
D03*
D20*
X473500Y305500D02*
D03*
X437500D02*
D03*
D21*
X463500D02*
D03*
X455500D02*
D03*
X447500D02*
D03*
D22*
X356000Y216500D02*
D03*
X331000Y236500D02*
D03*
Y216500D02*
D03*
X356000Y236500D02*
D03*
X490000Y319000D02*
D03*
X500000Y339000D02*
D03*
X510000Y319000D02*
D03*
D23*
X539500Y226500D02*
D03*
D24*
X374500Y337000D02*
D03*
X349500D02*
D03*
D25*
X364500Y317000D02*
D03*
D26*
X425000Y289500D02*
D03*
D27*
X404000Y294500D02*
D03*
X394000D02*
D03*
X384000D02*
D03*
X374000D02*
D03*
X364000D02*
D03*
X354000D02*
D03*
X344000D02*
D03*
X334000D02*
D03*
X404000Y264500D02*
D03*
X394000D02*
D03*
X384000D02*
D03*
X374000D02*
D03*
X364000D02*
D03*
X354000D02*
D03*
X344000D02*
D03*
D28*
X334000D02*
D03*
D29*
X437500Y286000D02*
D03*
X437000Y266500D02*
D03*
M02*
