G04*
G04 #@! TF.GenerationSoftware,Altium Limited,Altium Designer,22.10.1 (41)*
G04*
G04 Layer_Color=65535*
%FSLAX25Y25*%
%MOIN*%
G70*
G04*
G04 #@! TF.SameCoordinates,7AE85D4C-FD46-4DCC-B2CD-606CE683DADB*
G04*
G04*
G04 #@! TF.FilePolarity,Positive*
G04*
G01*
G75*
%ADD10C,0.01500*%
%ADD11C,0.00700*%
%ADD12C,0.00600*%
%ADD13C,0.01000*%
G36*
X452000Y342900D02*
Y338300D01*
X453200Y338100D01*
X454200Y337700D01*
X454900Y337200D01*
X455400Y336400D01*
X455700Y335500D01*
X455800Y334500D01*
X455700Y333500D01*
X455400Y332800D01*
X454900Y332100D01*
X454300Y331400D01*
X453700Y331000D01*
X452700Y330700D01*
X452000D01*
Y326000D01*
X452800Y326700D01*
X454000Y327600D01*
X454800Y328600D01*
X455700Y330100D01*
X456400Y332600D01*
X456600Y335400D01*
X455900Y338500D01*
X454700Y340500D01*
X453000Y342400D01*
X452000Y342900D01*
D02*
G37*
D10*
X405500Y349900D02*
X404947Y350661D01*
X404053Y350370D01*
Y349430D01*
X404947Y349139D01*
X405500Y349900D01*
X433500Y289400D02*
X432947Y290161D01*
X432053Y289870D01*
Y288930D01*
X432947Y288639D01*
X433500Y289400D01*
X334900Y272200D02*
X334347Y272961D01*
X333453Y272670D01*
Y271730D01*
X334347Y271439D01*
X334900Y272200D01*
X450500Y300000D02*
X460500D01*
D11*
X407005Y355038D02*
X407071Y354041D01*
X407334Y353078D01*
X407783Y352185D01*
X408400Y351400D01*
X409162Y350753D01*
X410036Y350271D01*
X410989Y349972D01*
X411983Y349868D01*
X412977Y349965D01*
X413932Y350256D01*
X414811Y350732D01*
X415577Y351373D01*
X416200Y352153D01*
X416656Y353042D01*
X416926Y354004D01*
X417000Y355000D01*
X456658Y334500D02*
X456609Y335496D01*
X456460Y336481D01*
X456214Y337448D01*
X455873Y338384D01*
X455441Y339282D01*
X454921Y340133D01*
X454319Y340928D01*
X453641Y341659D01*
X452893Y342318D01*
X452084Y342900D01*
X451220Y343399D01*
X450312Y343809D01*
X449367Y344126D01*
X448395Y344348D01*
X447406Y344472D01*
X446409Y344497D01*
X445415Y344422D01*
X444433Y344249D01*
X443473Y343979D01*
X442545Y343615D01*
X441658Y343160D01*
X440821Y342619D01*
X440041Y341998D01*
X439328Y341302D01*
X438687Y340538D01*
X438125Y339714D01*
X437649Y338839D01*
X437261Y337920D01*
X436968Y336968D01*
X436770Y335990D01*
X436671Y334998D01*
Y334001D01*
X436770Y333010D01*
X436968Y332032D01*
X437261Y331080D01*
X437649Y330161D01*
X438125Y329286D01*
X438687Y328462D01*
X439328Y327698D01*
X440041Y327002D01*
X440821Y326381D01*
X441658Y325840D01*
X442545Y325385D01*
X443473Y325021D01*
X444433Y324751D01*
X445415Y324578D01*
X446409Y324503D01*
X447406Y324528D01*
X448395Y324652D01*
X449367Y324874D01*
X450312Y325191D01*
X451220Y325601D01*
X452084Y326100D01*
X452893Y326682D01*
X453641Y327341D01*
X454319Y328072D01*
X454921Y328867D01*
X455441Y329717D01*
X455873Y330616D01*
X456214Y331552D01*
X456460Y332519D01*
X456609Y333504D01*
X456658Y334500D01*
X453500Y316000D02*
X454457Y316116D01*
X455359Y316458D01*
X456152Y317006D01*
X456792Y317728D01*
X457240Y318582D01*
X457471Y319518D01*
Y320482D01*
X457240Y321418D01*
X456792Y322272D01*
X456152Y322994D01*
X455359Y323542D01*
X454457Y323884D01*
X453500Y324000D01*
X443400D02*
X442443Y323884D01*
X441541Y323542D01*
X440747Y322994D01*
X440108Y322272D01*
X439660Y321418D01*
X439429Y320482D01*
Y319518D01*
X439660Y318582D01*
X440108Y317728D01*
X440747Y317006D01*
X441541Y316458D01*
X442443Y316116D01*
X443400Y316000D01*
X435005Y294538D02*
X435071Y293541D01*
X435333Y292578D01*
X435783Y291685D01*
X436400Y290900D01*
X437161Y290253D01*
X438036Y289771D01*
X438989Y289472D01*
X439983Y289369D01*
X440977Y289465D01*
X441932Y289756D01*
X442811Y290232D01*
X443577Y290873D01*
X444200Y291653D01*
X444656Y292542D01*
X444926Y293504D01*
X445000Y294500D01*
X510435Y323634D02*
X510859Y324534D01*
X511206Y325467D01*
X511472Y326425D01*
X511657Y327403D01*
X511759Y328393D01*
X511777Y329387D01*
X511710Y330380D01*
X511560Y331364D01*
X511328Y332331D01*
X511015Y333276D01*
X510624Y334190D01*
X510156Y335068D01*
X509616Y335904D01*
X509008Y336691D01*
X508335Y337424D01*
X507603Y338098D01*
X506816Y338708D01*
X505981Y339249D01*
X505104Y339717D01*
X504190Y340110D01*
X495810Y340010D02*
X494896Y339617D01*
X494019Y339148D01*
X493184Y338608D01*
X492397Y337998D01*
X491665Y337325D01*
X490992Y336591D01*
X490384Y335804D01*
X489844Y334968D01*
X489376Y334090D01*
X488985Y333176D01*
X488672Y332231D01*
X488439Y331264D01*
X488290Y330280D01*
X488223Y329287D01*
X488241Y328293D01*
X488343Y327303D01*
X488528Y326325D01*
X488794Y325367D01*
X489141Y324434D01*
X489565Y323534D01*
X328962Y274505D02*
X329959Y274571D01*
X330923Y274833D01*
X331815Y275283D01*
X332600Y275900D01*
X333246Y276661D01*
X333729Y277536D01*
X334028Y278489D01*
X334132Y279483D01*
X334035Y280477D01*
X333744Y281432D01*
X333268Y282311D01*
X332627Y283077D01*
X331847Y283700D01*
X330958Y284156D01*
X329996Y284426D01*
X329000Y284500D01*
X417000Y324800D02*
Y344900D01*
X407000D02*
X417000D01*
X407000Y324800D02*
Y344900D01*
Y324800D02*
X417000D01*
X432000Y315000D02*
Y355000D01*
X392000Y315000D02*
X432000D01*
X392000D02*
Y355000D01*
X417100D02*
X432000D01*
X392000D02*
X407000D01*
X442000Y339500D02*
Y341500D01*
X441000Y340500D02*
X443000D01*
X443500Y316000D02*
X453500D01*
X443500Y324000D02*
X453500D01*
X437500Y314000D02*
X473500D01*
X437500Y297000D02*
X473500D01*
Y310000D02*
Y314000D01*
Y297000D02*
Y301000D01*
X437500Y297000D02*
Y301000D01*
Y310000D02*
Y314000D01*
X485800Y214000D02*
X489300D01*
Y217800D02*
X507800D01*
Y214000D02*
X511200D01*
X489300Y210200D02*
X507800D01*
Y217800D01*
X489300Y210200D02*
Y217800D01*
X485800Y227000D02*
X489300D01*
Y230800D02*
X507800D01*
Y227000D02*
X511200D01*
X489300Y223200D02*
X507800D01*
Y230800D01*
X489300Y223200D02*
Y230800D01*
X485800Y238000D02*
X489300D01*
Y241800D02*
X507800D01*
Y238000D02*
X511200D01*
X489300Y234200D02*
X507800D01*
Y241800D01*
X489300Y234200D02*
Y241800D01*
X485800Y249000D02*
X489300D01*
Y252800D02*
X507800D01*
Y249000D02*
X511200D01*
X489300Y245200D02*
X507800D01*
Y252800D01*
X489300Y245200D02*
Y252800D01*
X485800Y264500D02*
X489300D01*
Y268300D02*
X507800D01*
Y264500D02*
X511200D01*
X489300Y260700D02*
X507800D01*
Y268300D01*
X489300Y260700D02*
Y268300D01*
X485800Y277500D02*
X489300D01*
Y281300D02*
X507800D01*
Y277500D02*
X511200D01*
X489300Y273700D02*
X507800D01*
Y281300D01*
X489300Y273700D02*
Y281300D01*
X485800Y290500D02*
X489300D01*
Y294300D02*
X507800D01*
Y290500D02*
X511200D01*
X489300Y286700D02*
X507800D01*
Y294300D01*
X489300Y286700D02*
Y294300D01*
X332000Y237900D02*
X332100Y238000D01*
X319500Y319000D02*
Y352000D01*
X374000Y319000D02*
Y352000D01*
X319500D02*
X374000D01*
X319500Y319000D02*
X374000D01*
X326500D02*
Y352000D01*
X459900Y294500D02*
X460000Y294400D01*
Y214500D02*
Y294400D01*
X420000Y214500D02*
X460000D01*
X420000D02*
Y294500D01*
X445100D02*
X460000D01*
X420000D02*
X435000D01*
Y284500D02*
X445000D01*
X435000Y224500D02*
Y284500D01*
Y224500D02*
X445000D01*
Y284500D01*
X487100Y314600D02*
X492200D01*
X508000D02*
X513100D01*
X495400Y343600D02*
X504150D01*
X490000Y342700D02*
X495400Y343600D01*
X486900Y339600D02*
X490000Y342700D01*
X486900Y322100D02*
Y339600D01*
X493100Y316000D02*
X506800D01*
X513000Y322200D02*
Y339700D01*
X510000Y342700D02*
X513000Y339700D01*
X504150Y343600D02*
X510000Y342700D01*
X493200Y321900D02*
X506700D01*
X490800Y327600D02*
Y330300D01*
Y327600D02*
X498500D01*
Y324600D02*
Y327600D01*
Y324600D02*
X501200D01*
Y327500D01*
X509200D01*
Y330400D01*
X501300D02*
X509200D01*
X501300D02*
Y332900D01*
X498600D02*
X501300D01*
X498600Y330300D02*
Y332900D01*
X490900Y330300D02*
X498600D01*
X329000Y299400D02*
X329100Y299500D01*
X409000D01*
Y259500D02*
Y299500D01*
X329000Y259500D02*
X409000D01*
X329000Y284600D02*
Y299500D01*
Y259500D02*
Y274500D01*
X339000D02*
Y284500D01*
Y274500D02*
X399000D01*
Y284500D01*
X339000D02*
X399000D01*
X465700Y351000D02*
X469200D01*
X447200Y347200D02*
X465700D01*
X443800Y351000D02*
X447200D01*
Y354800D02*
X465700D01*
X447200Y347200D02*
Y354800D01*
X465700Y347200D02*
Y354800D01*
X358200Y251000D02*
X361700D01*
X339700Y247200D02*
X358200D01*
X336300Y251000D02*
X339700D01*
Y254800D02*
X358200D01*
X339700Y247200D02*
Y254800D01*
X358200Y247200D02*
Y254800D01*
D12*
X348500Y226000D02*
X348398Y227007D01*
X348095Y227972D01*
X347604Y228856D01*
X346945Y229624D01*
X346145Y230243D01*
X345236Y230689D01*
X344257Y230942D01*
X343247Y230994D01*
X342247Y230840D01*
X341298Y230489D01*
X340440Y229954D01*
X339706Y229257D01*
X339128Y228427D01*
X338729Y227497D01*
X338526Y226506D01*
Y225494D01*
X338729Y224503D01*
X339128Y223573D01*
X339706Y222743D01*
X340440Y222046D01*
X341298Y221511D01*
X342247Y221160D01*
X343247Y221006D01*
X344257Y221058D01*
X345236Y221311D01*
X346145Y221757D01*
X346945Y222376D01*
X347604Y223144D01*
X348095Y224028D01*
X348398Y224993D01*
X348500Y226000D01*
X354500Y222000D02*
Y231500D01*
X336000Y236500D02*
X351400D01*
X332000Y222000D02*
Y231500D01*
X336000Y216500D02*
X351500D01*
X545800Y256700D02*
X548500Y258000D01*
X567000D01*
X546000D02*
X549000Y259500D01*
X546000Y258000D02*
X548500Y274000D01*
X549000Y259500D02*
X551500Y273000D01*
X553000D02*
X567000D01*
X545800Y256700D02*
X548500Y255000D01*
X566500D01*
X545500Y255500D02*
X548000Y254000D01*
X542800Y240100D02*
X545500Y255500D01*
X546000Y241200D02*
X548000Y254000D01*
X543500Y239500D02*
X546000Y241200D01*
X542800Y240100D02*
X543500Y239500D01*
X546000Y241200D01*
X544500Y238500D02*
X549500D01*
X544700D02*
X547400D01*
X544500D02*
X544700D01*
X544200Y238700D02*
X544500Y238500D01*
X544200Y238700D02*
X547600Y240900D01*
X563100D01*
X567000Y258000D02*
X569200Y256500D01*
X566500Y255000D02*
X569200Y256500D01*
X551600Y275500D02*
X569200D01*
X570500D01*
X571100Y275100D01*
X568900Y273000D02*
X571100Y275100D01*
X566800Y273000D02*
X568900D01*
X548500Y274000D02*
X549500Y274800D01*
X551500Y273000D01*
X550600Y275200D02*
X553000Y273000D01*
X550500Y275300D02*
X550600Y275200D01*
X550500Y275300D02*
X550800Y275500D01*
X551800D01*
X545000Y238500D02*
X547100D01*
X569500Y272300D02*
X571900Y274700D01*
X567100Y259200D02*
X569500Y272300D01*
X567100Y259200D02*
X569400Y257600D01*
X572400Y274500D01*
X571900Y274700D02*
X572400Y274500D01*
X549500Y238500D02*
X564500D01*
X566700Y254000D02*
X569100Y255400D01*
X566300Y253800D02*
X566700Y254000D01*
X564100Y241600D02*
X566300Y253800D01*
X564100Y241600D02*
X565800Y239500D01*
X566300Y239800D01*
X569100Y255400D01*
X564500Y238500D02*
X564900Y238800D01*
X563100Y240900D02*
X564900Y238800D01*
X535100Y219000D02*
X583900D01*
Y294000D01*
X535100D02*
X583900D01*
X535100Y219000D02*
Y294000D01*
D13*
X578602Y237600D02*
X578433Y238558D01*
X577946Y239401D01*
X577201Y240026D01*
X576287Y240359D01*
X575314D01*
X574399Y240026D01*
X573654Y239401D01*
X573167Y238558D01*
X572998Y237600D01*
X573167Y236642D01*
X573654Y235799D01*
X574399Y235174D01*
X575314Y234841D01*
X576287D01*
X577201Y235174D01*
X577946Y235799D01*
X578433Y236642D01*
X578602Y237600D01*
X451500Y298000D02*
Y302000D01*
X449500Y300000D02*
X451500Y298000D01*
X449500Y300000D02*
X451500Y302000D01*
X459500Y298000D02*
X461500Y300000D01*
X459500Y302000D02*
X461500Y300000D01*
X459500Y298000D02*
Y302000D01*
X482300Y365198D02*
Y361199D01*
X484299Y359200D01*
X486299Y361199D01*
Y365198D01*
X488298Y359200D02*
Y365198D01*
X491297D01*
X492297Y364198D01*
Y362199D01*
X491297Y361199D01*
X488298D01*
X490297D02*
X492297Y359200D01*
X494296D02*
X496295D01*
X495296D01*
Y365198D01*
X494296Y364198D01*
X392600Y365798D02*
Y360800D01*
X393600Y359800D01*
X395599D01*
X396599Y360800D01*
Y365798D01*
X398598Y364798D02*
X399598Y365798D01*
X401597D01*
X402597Y364798D01*
Y363799D01*
X401597Y362799D01*
X400597D01*
X401597D01*
X402597Y361799D01*
Y360800D01*
X401597Y359800D01*
X399598D01*
X398598Y360800D01*
X329600Y309098D02*
Y304100D01*
X330600Y303100D01*
X332599D01*
X333599Y304100D01*
Y309098D01*
X339597Y303100D02*
X335598D01*
X339597Y307099D01*
Y308098D01*
X338597Y309098D01*
X336598D01*
X335598Y308098D01*
X420300Y303898D02*
Y298900D01*
X421300Y297900D01*
X423299D01*
X424299Y298900D01*
Y303898D01*
X426298Y297900D02*
X428297D01*
X427298D01*
Y303898D01*
X426298Y302898D01*
X482001Y306499D02*
X481002Y307499D01*
X479002D01*
X478003Y306499D01*
Y305500D01*
X479002Y304500D01*
X481002D01*
X482001Y303500D01*
Y302501D01*
X481002Y301501D01*
X479002D01*
X478003Y302501D01*
X484001Y307499D02*
Y301501D01*
X486000Y303500D01*
X487999Y301501D01*
Y307499D01*
X493997Y301501D02*
X489999D01*
X493997Y305500D01*
Y306499D01*
X492998Y307499D01*
X490998D01*
X489999Y306499D01*
X315001Y237499D02*
X314001Y238499D01*
X312002D01*
X311002Y237499D01*
Y236500D01*
X312002Y235500D01*
X314001D01*
X315001Y234500D01*
Y233501D01*
X314001Y232501D01*
X312002D01*
X311002Y233501D01*
X317000Y238499D02*
Y232501D01*
X319000Y234500D01*
X320999Y232501D01*
Y238499D01*
X322998Y232501D02*
X324998D01*
X323998D01*
Y238499D01*
X322998Y237499D01*
X328600Y258700D02*
Y264698D01*
X331599D01*
X332599Y263698D01*
Y261699D01*
X331599Y260699D01*
X328600D01*
X330599D02*
X332599Y258700D01*
X334598Y259700D02*
X335598Y258700D01*
X337597D01*
X338597Y259700D01*
Y263698D01*
X337597Y264698D01*
X335598D01*
X334598Y263698D01*
Y262699D01*
X335598Y261699D01*
X338597D01*
X436100Y358700D02*
Y364698D01*
X439099D01*
X440099Y363698D01*
Y361699D01*
X439099Y360699D01*
X436100D01*
X438099D02*
X440099Y358700D01*
X442098Y363698D02*
X443098Y364698D01*
X445097D01*
X446097Y363698D01*
Y362699D01*
X445097Y361699D01*
X446097Y360699D01*
Y359700D01*
X445097Y358700D01*
X443098D01*
X442098Y359700D01*
Y360699D01*
X443098Y361699D01*
X442098Y362699D01*
Y363698D01*
X443098Y361699D02*
X445097D01*
X466002Y211501D02*
Y217499D01*
X469001D01*
X470000Y216499D01*
Y214500D01*
X469001Y213500D01*
X466002D01*
X468001D02*
X470000Y211501D01*
X472000Y217499D02*
X475998D01*
Y216499D01*
X472000Y212501D01*
Y211501D01*
X465502Y224001D02*
Y229999D01*
X468501D01*
X469500Y228999D01*
Y227000D01*
X468501Y226000D01*
X465502D01*
X467501D02*
X469500Y224001D01*
X475498Y229999D02*
X473499Y228999D01*
X471500Y227000D01*
Y225001D01*
X472499Y224001D01*
X474499D01*
X475498Y225001D01*
Y226000D01*
X474499Y227000D01*
X471500D01*
X465502Y235001D02*
Y240999D01*
X468501D01*
X469500Y239999D01*
Y238000D01*
X468501Y237000D01*
X465502D01*
X467501D02*
X469500Y235001D01*
X475498Y240999D02*
X471500D01*
Y238000D01*
X473499Y239000D01*
X474499D01*
X475498Y238000D01*
Y236001D01*
X474499Y235001D01*
X472499D01*
X471500Y236001D01*
X465502Y245501D02*
Y251499D01*
X468501D01*
X469500Y250499D01*
Y248500D01*
X468501Y247500D01*
X465502D01*
X467501D02*
X469500Y245501D01*
X474499D02*
Y251499D01*
X471500Y248500D01*
X475498D01*
X465502Y261501D02*
Y267499D01*
X468501D01*
X469500Y266499D01*
Y264500D01*
X468501Y263500D01*
X465502D01*
X467501D02*
X469500Y261501D01*
X471500Y266499D02*
X472499Y267499D01*
X474499D01*
X475498Y266499D01*
Y265500D01*
X474499Y264500D01*
X473499D01*
X474499D01*
X475498Y263500D01*
Y262501D01*
X474499Y261501D01*
X472499D01*
X471500Y262501D01*
X466002Y274001D02*
Y279999D01*
X469001D01*
X470000Y278999D01*
Y277000D01*
X469001Y276000D01*
X466002D01*
X468001D02*
X470000Y274001D01*
X475998D02*
X472000D01*
X475998Y278000D01*
Y278999D01*
X474999Y279999D01*
X472999D01*
X472000Y278999D01*
X467501Y287001D02*
Y292999D01*
X470500D01*
X471500Y291999D01*
Y290000D01*
X470500Y289000D01*
X467501D01*
X469501D02*
X471500Y287001D01*
X473499D02*
X475499D01*
X474499D01*
Y292999D01*
X473499Y291999D01*
X324199Y362898D02*
X322199D01*
X323199D01*
Y357900D01*
X322199Y356900D01*
X321200D01*
X320200Y357900D01*
X326198Y362898D02*
Y356900D01*
X329197D01*
X330197Y357900D01*
Y361898D01*
X329197Y362898D01*
X326198D01*
X336195Y361898D02*
X335195Y362898D01*
X333196D01*
X332196Y361898D01*
Y357900D01*
X333196Y356900D01*
X335195D01*
X336195Y357900D01*
X338194Y356900D02*
X340194D01*
X339194D01*
Y362898D01*
X338194Y361898D01*
X535800Y303298D02*
Y297300D01*
X538799D01*
X539799Y298300D01*
Y302298D01*
X538799Y303298D01*
X535800D01*
X545797Y302298D02*
X544797Y303298D01*
X542798D01*
X541798Y302298D01*
Y301299D01*
X542798Y300299D01*
X544797D01*
X545797Y299299D01*
Y298300D01*
X544797Y297300D01*
X542798D01*
X541798Y298300D01*
X547796Y297300D02*
X549795D01*
X548796D01*
Y303298D01*
X547796Y302298D01*
X467000Y320999D02*
X466001Y321999D01*
X464001D01*
X463002Y320999D01*
Y317001D01*
X464001Y316001D01*
X466001D01*
X467000Y317001D01*
X472998Y316001D02*
X469000D01*
X472998Y320000D01*
Y320999D01*
X471999Y321999D01*
X469999D01*
X469000Y320999D01*
X466000Y337499D02*
X465000Y338499D01*
X463001D01*
X462001Y337499D01*
Y333501D01*
X463001Y332501D01*
X465000D01*
X466000Y333501D01*
X467999Y332501D02*
X469999D01*
X468999D01*
Y338499D01*
X467999Y337499D01*
M02*
